<?xml version="1.0" encoding="UTF-8"?>
<svg version="1.1" xmlns="http://www.w3.org/2000/svg" width="1774" height="887">
<path d="M0 0 C0.7122876 0.61787384 0.7122876 0.61787384 1.43896484 1.24822998 C2.06496582 1.78860901 2.6909668 2.32898804 3.3359375 2.88574219 C3.9551709 3.42140808 4.5744043 3.95707397 5.21240234 4.50897217 C13.55063779 11.46385996 22.12574652 14.50951819 32.9375 14.3203125 C40.5286373 13.52634151 46.45477148 9.74013059 53 6 C53.33 53.52 53.66 101.04 54 150 C58.29 144.06 62.58 138.12 67 132 C69.75480201 128.33891848 72.51427618 124.6893949 75.3125 121.0625 C76.60151948 119.38768703 77.88927816 117.71190295 79.17578125 116.03515625 C79.82530762 115.2261084 80.47483398 114.41706055 81.14404297 113.58349609 C83.10431389 111.02695019 83.10431389 111.02695019 84.40673828 107.95166016 C86.27803786 104.30816774 87.63789114 102.38785987 91 100 C98.85961231 98.0996666 107.24551801 98.92995987 115.25 99.25 C117.47255701 99.29666106 119.69522372 99.33837392 121.91796875 99.375 C131.98398917 99.57675046 141.97226409 100.08753429 152 101 C150.22839818 104.6777744 148.02144818 107.89506564 145.625 111.1875 C144.71826638 112.44496391 143.81203814 113.70279236 142.90625 114.9609375 C142.43058594 115.62061523 141.95492187 116.28029297 141.46484375 116.95996094 C138.49128353 121.10113914 135.55885277 125.27152249 132.62817383 129.44311523 C129.97998413 133.2094769 127.31137712 136.95842639 124.60546875 140.68359375 C124.0542334 141.44824951 123.50299805 142.21290527 122.93505859 143.00073242 C121.87842342 144.46549016 120.81525422 145.9255636 119.74462891 147.38012695 C116.04986766 152.22994621 116.04986766 152.22994621 115 158 C116.33044161 160.88639575 118.08915458 163.44042981 119.875 166.0625 C120.9924172 167.76507055 122.1068185 169.46962298 123.21875 171.17578125 C123.8271875 172.10471191 124.435625 173.03364258 125.0625 173.99072266 C128.23579054 178.91939946 131.26273872 183.93660852 134.29147339 188.95483398 C135.38144159 190.7606723 136.47370692 192.5651017 137.56665039 194.36914062 C139.01673947 196.76303272 140.46608185 199.15737334 141.91455078 201.55224609 C149.72649688 214.46809922 157.55089216 227.36847569 165.64672852 240.10888672 C170.87104056 248.34086818 175.94150088 256.66542566 181 265 C177.44050676 269.5889875 173.77526685 273.00251631 169.0625 276.375 C168.40934814 276.84760254 167.75619629 277.32020508 167.08325195 277.80712891 C160.64993834 282.38299646 153.95681328 286.27403487 147 290 C146.02417969 290.55171875 145.04835938 291.1034375 144.04296875 291.671875 C143.16253906 292.15140625 142.28210938 292.6309375 141.375 293.125 C140.61960937 293.54007813 139.86421875 293.95515625 139.0859375 294.3828125 C137 295 137 295 135.03442383 294.30371094 C132.56571465 292.72169882 131.74451284 291.33386164 130.36328125 288.7578125 C129.63419556 287.4272583 129.63419556 287.4272583 128.89038086 286.06982422 C128.36968018 285.09803223 127.84897949 284.12624023 127.3125 283.125 C122.24006852 273.89506615 116.94395222 264.84892071 111.4375 255.875 C106.50229311 247.81710205 101.63991679 239.73307223 97 231.5 C90.3614759 219.73983735 83.30770756 208.23543123 76.26708984 196.71386719 C72.74991238 190.95577634 69.25126431 185.18642176 65.75106812 179.41799927 C64.64931013 177.60255746 63.54703511 175.78743069 62.44458008 173.97241211 C61.43947388 172.31737671 61.43947388 172.31737671 60.4140625 170.62890625 C59.8257666 169.66025635 59.2374707 168.69160645 58.63134766 167.69360352 C57.08068501 165.13322324 55.54006222 162.56677037 54 160 C53.67 182.44 53.34 204.88 53 228 C45.12299958 229.12528577 45.12299958 229.12528577 41.09033203 229.12939453 C39.74456589 229.13412277 39.74456589 229.13412277 38.37161255 229.13894653 C36.95403152 229.13591019 36.95403152 229.13591019 35.5078125 229.1328125 C34.02799393 229.13424759 34.02799393 229.13424759 32.51828003 229.13571167 C30.44577978 229.13638915 28.37327736 229.13456512 26.30078125 229.13037109 C23.11453569 229.1249823 19.9284289 229.13034823 16.7421875 229.13671875 C14.72656219 229.13605856 12.71093696 229.13477864 10.6953125 229.1328125 C9.2595134 229.13584885 9.2595134 229.13584885 7.79470825 229.13894653 C6.91644379 229.13579437 6.03817932 229.13264221 5.13330078 229.12939453 C4.35721466 229.12859894 3.58112854 229.12780334 2.78152466 229.12698364 C1 229 1 229 0 228 C-0.09797065 225.06695272 -0.12991804 222.15744612 -0.12025452 219.22398376 C-0.12110894 218.2920794 -0.12196337 217.36017504 -0.12284368 216.40003115 C-0.12450134 213.25226407 -0.11897247 210.10454934 -0.11352539 206.95678711 C-0.11324355 204.71036277 -0.11340118 202.46393833 -0.1139679 200.21751404 C-0.11425601 194.09792571 -0.10835706 187.97835679 -0.10139394 181.85877299 C-0.09516269 175.47124373 -0.09455678 169.08371408 -0.09336853 162.69618225 C-0.09060882 151.96826781 -0.08435329 141.24036189 -0.07543945 130.51245117 C-0.06626606 119.46069372 -0.05918487 108.40893822 -0.05493164 97.35717773 C-0.05466892 96.67640547 -0.05440619 95.9956332 -0.05413551 95.29423147 C-0.05283051 91.87913387 -0.05156679 88.46403625 -0.05032361 85.04893863 C-0.03995012 56.69928749 -0.02225692 28.34964413 0 0 Z " fill="#BA4B88" transform="translate(301,300)"/>
<path d="M0 0 C11.55 0 23.1 0 35 0 C35.33 18.48 35.66 36.96 36 56 C39.3 53.69 42.6 51.38 46 49 C49.64453125 47.2578125 49.64453125 47.2578125 52.8125 46.125 C54.39998047 45.54105469 54.39998047 45.54105469 56.01953125 44.9453125 C71.63772842 39.99170344 88.43797482 42.95820663 102.8125 50.1875 C118.33303981 59.17307568 128.38471365 72.93758846 133.45703125 89.95166016 C138.51900267 109.04785629 136.18940905 129.56391699 126.87109375 146.9921875 C117.28476016 162.40236884 103.55743014 172.74073171 85.78125 177.07421875 C70.78234776 180.29522103 55.01647169 178.56172076 41.875 170.5 C38.54888569 168.27585062 35.7583396 165.89816327 33 163 C32.93941406 163.78246094 32.87882812 164.56492187 32.81640625 165.37109375 C32.73261719 166.38300781 32.64882812 167.39492188 32.5625 168.4375 C32.48128906 169.44683594 32.40007812 170.45617187 32.31640625 171.49609375 C32 174 32 174 31 175 C28.79349344 175.10012401 26.58377614 175.1308118 24.375 175.1328125 C23.71290527 175.13376923 23.05081055 175.13472595 22.36865234 175.13571167 C20.96647039 175.13639326 19.5642853 175.13454042 18.16210938 175.13037109 C16.00904287 175.12502246 13.85618498 175.1303167 11.703125 175.13671875 C10.34374954 175.13605796 8.9843742 175.13477679 7.625 175.1328125 C6.37976562 175.13168457 5.13453125 175.13055664 3.8515625 175.12939453 C1 175 1 175 0 174 C-0.09704641 171.75975357 -0.12186656 169.51637946 -0.12025452 167.27403259 C-0.12153615 166.20694379 -0.12153615 166.20694379 -0.12284368 165.11829764 C-0.12450057 162.71677952 -0.11897374 160.31533012 -0.11352539 157.91381836 C-0.11324354 156.19940696 -0.11340122 154.48499544 -0.1139679 152.77058411 C-0.11425594 148.10136027 -0.10835804 143.43216188 -0.10139394 138.76294398 C-0.09516161 133.88888473 -0.0945567 129.01482495 -0.09336853 124.14076233 C-0.09025486 114.9043057 -0.08204098 105.66786085 -0.07201904 96.43140942 C-0.06085902 85.91889135 -0.05534774 75.40637272 -0.05032361 64.89385021 C-0.0398584 43.26255877 -0.02151247 21.63128347 0 0 Z M40.14453125 87.10546875 C33.40560871 96.50668168 31.85691952 106.60772599 33 118 C35.09968801 127.28845034 39.52445308 134.77674539 47.3125 140.3125 C56.05956643 145.671721 64.40776659 147.2807567 74.5703125 145.56640625 C83.03729772 143.42975324 90.3265727 138.81755908 95.4375 131.6875 C101.13730379 122.11247551 102.71309698 111.6628854 100.2734375 100.75 C96.89897173 89.77612758 91.95483875 83.77589595 82 78 C67.68325603 71.00235139 50.53415972 75.31597455 40.14453125 87.10546875 Z " fill="#F6F6F7" transform="translate(1445,345)"/>
<path d="M0 0 C0.84691406 0.26683594 1.69382812 0.53367187 2.56640625 0.80859375 C17.08090081 5.91933127 28.94679613 17.53010091 36 31 C37.95674815 35.59162859 39.5610991 40.22239937 41 45 C41.2475 45.80695313 41.495 46.61390625 41.75 47.4453125 C46.30078355 65.58524138 42.79531355 86.64230159 33.47265625 102.6171875 C23.68324881 117.40495122 10.32874432 127.33213024 -6.9375 131.37890625 C-23.23882731 134.22921274 -39.00977624 132.03949687 -53 123 C-54.65 121.68 -56.3 120.36 -58 119 C-58.33 136.49 -58.66 153.98 -59 172 C-70.22 172 -81.44 172 -93 172 C-93.87297309 153.45300627 -94.1507955 134.9548694 -94.1343255 116.39266801 C-94.13174244 112.55455859 -94.1341547 108.71645122 -94.13571167 104.87834167 C-94.13751223 98.4619401 -94.135179 92.04555018 -94.13037109 85.62915039 C-94.12488816 78.22664562 -94.12672855 70.82416822 -94.1321975 63.42166406 C-94.13673679 57.0185691 -94.1373765 50.61548236 -94.13475883 44.21238631 C-94.13320621 40.40747896 -94.13297525 36.6025845 -94.13629532 32.79767799 C-94.13918745 29.23761009 -94.13717374 25.67757773 -94.13140106 22.11751366 C-94.12945544 20.19614078 -94.13241278 18.27476489 -94.13552856 16.35339355 C-94.13270874 15.203293 -94.12988892 14.05319244 -94.12698364 12.86824036 C-94.12660662 11.87383344 -94.12622959 10.87942652 -94.12584114 9.85488605 C-94 7 -94 7 -93 1 C-82.44 1 -71.88 1 -61 1 C-60.505 6.445 -60.505 6.445 -60 12 C-58.948125 11.20335937 -58.948125 11.20335937 -57.875 10.390625 C-40.32044206 -2.67988825 -21.21986575 -7.19792803 0 0 Z M-52.75 41.625 C-59.42989071 49.71118349 -60.70233683 59.22854542 -60.37890625 69.453125 C-59.42906457 78.34442649 -55.31848243 85.71755454 -49 92 C-40.34114578 98.50110116 -31.7636418 100.96103945 -21 100 C-14.88728875 98.79677954 -9.97800364 96.82032838 -5 93 C-4.175 92.46375 -3.35 91.9275 -2.5 91.375 C4.02132263 85.17974351 7.55551105 77.07027515 8.3359375 68.16796875 C8.45019482 56.52514834 6.59730415 48.18798679 -0.9453125 39.04296875 C-7.66247856 32.36411352 -15.92530507 29.0161833 -25.3125 28.6875 C-36.95443579 28.95861357 -44.74832181 33.4534348 -52.75 41.625 Z " fill="#F6F6F7" transform="translate(973,391)"/>
<path d="M0 0 C13.94898765 10.39917628 23.61191553 25.2847955 27.49609375 42.30859375 C30.33485518 63.10417169 27.56758115 83.91602861 14.7578125 100.98828125 C12.59921337 103.44938303 10.36598974 105.73907197 8 108 C7.38769531 108.63164062 6.77539062 109.26328125 6.14453125 109.9140625 C-5.76631959 121.44396928 -21.87128057 125.50179741 -37.99291992 125.35180664 C-51.72248321 124.95553741 -62.29170654 120.56663477 -73 112 C-73.33 129.49 -73.66 146.98 -74 165 C-85.22 165 -96.44 165 -108 165 C-108 108.57 -108 52.14 -108 -6 C-97.44 -6 -86.88 -6 -76 -6 C-75.505 -0.06 -75.505 -0.06 -75 6 C-73.72125 4.783125 -72.4425 3.56625 -71.125 2.3125 C-51.62874544 -14.90260153 -21.09735138 -13.97265275 0 0 Z M-65.9765625 32.96875 C-72.83452412 41.02320706 -75.77690827 50.51674969 -75.390625 61.04296875 C-74.0162331 71.44711546 -69.16482494 79.68060584 -61.22265625 86.390625 C-53.53831826 91.95467992 -45.32870383 93.72482015 -36 93 C-25.65552032 91.13641435 -17.5464724 85.93595791 -11.44140625 77.39453125 C-5.8139793 68.04598729 -5.55147077 56.36107936 -7.62109375 45.84375 C-10.17088817 37.77506721 -14.80768212 31.52389226 -22.08203125 27.14453125 C-37.54329469 19.27368251 -53.26873472 20.31115079 -65.9765625 32.96875 Z " fill="#F8F8F8" transform="translate(1135,398)"/>
<path d="M0 0 C11.22 0 22.44 0 34 0 C34.33 19.14 34.66 38.28 35 58 C38.3 55.36 41.6 52.72 45 50 C58.64849937 42.94571943 73.00246851 40.38006944 88 44.6875 C93.16712816 46.49727385 97.59920027 48.76008269 102 52 C102.845625 52.556875 103.69125 53.11375 104.5625 53.6875 C115.39522964 63.96470504 120.72755239 78.54278894 121.18156433 93.26286316 C121.27264021 98.38615186 121.2519333 103.50898704 121.23046875 108.6328125 C121.22927479 110.52041594 121.22882425 112.40801998 121.2290802 114.29562378 C121.22752483 118.22739445 121.21930194 122.15907283 121.20581055 126.09082031 C121.18870463 131.1405487 121.18500004 136.19017713 121.18575573 141.23993111 C121.18548469 145.12595582 121.18001607 149.01195851 121.17275429 152.89797592 C121.16956611 154.76159372 121.16759986 156.62521401 121.16686058 158.48883438 C121.16470521 161.0787005 121.15598204 163.66845784 121.14526367 166.25830078 C121.14571686 167.03223679 121.14617004 167.80617279 121.14663696 168.6035614 C121.11448618 173.88551382 121.11448618 173.88551382 120 175 C117.56339554 175.10082764 115.15575299 175.13972603 112.71875 175.1328125 C111.99006714 175.13376923 111.26138428 175.13472595 110.51062012 175.13571167 C108.9672029 175.13639335 107.42378283 175.13453988 105.88037109 175.13037109 C103.510026 175.12502262 101.13987041 175.13031642 98.76953125 175.13671875 C97.27343708 175.13605797 95.77734303 175.1347768 94.28125 175.1328125 C93.56771362 175.13483673 92.85417725 175.13686096 92.11901855 175.13894653 C87.11495191 175.11495191 87.11495191 175.11495191 86 174 C85.89626547 171.59400999 85.85638164 169.2157995 85.8581543 166.80908203 C85.85467987 166.05607315 85.85120544 165.30306427 85.84762573 164.52723694 C85.84025294 162.8848355 85.83491572 161.242424 85.83133507 159.60000992 C85.82417656 156.99244365 85.80851019 154.38506635 85.78999329 151.77755737 C85.7375272 144.36084753 85.68964272 136.94423473 85.67407227 129.52734375 C85.66392994 124.99370874 85.6344372 120.46053973 85.59275246 115.92708969 C85.580514 114.2057436 85.575308 112.48433141 85.57755089 110.76294327 C85.5870949 101.03751834 85.16628634 92.98960995 81 84 C80.67 83.01 80.34 82.02 80 81 C78.35369807 79.88064927 78.35369807 79.88064927 76 79 C74.80375 78.46375 73.6075 77.9275 72.375 77.375 C64.37016316 74.48970761 57.17233277 75.67533825 49.41015625 78.80859375 C43.4671357 81.74639159 39.88148652 87.1947762 37 93 C34.2692778 101.52614304 34.67046441 110.62359598 34.62109375 119.47265625 C34.60489107 121.04781599 34.58770824 122.62296592 34.56959534 124.19810486 C34.52423947 128.31244387 34.48924749 132.42679641 34.45739746 136.54125977 C34.40518272 143.15747609 34.34050931 149.7735502 34.26918221 156.38958549 C34.24632699 158.69908708 34.2300825 161.00857009 34.21446228 163.31813049 C34.20106585 164.72128517 34.18745195 166.12443779 34.17358398 167.52758789 C34.15931618 169.37097496 34.15931618 169.37097496 34.14476013 171.25160217 C34 174 34 174 33 175 C30.55196233 175.0884283 28.13155206 175.11535972 25.68359375 175.09765625 C25.03588013 175.09664917 24.3881665 175.09564209 23.7208252 175.09460449 C21.29300772 175.08935838 18.8652897 175.07543298 16.4375 175.0625 C13.50529267 175.05055012 10.57308092 175.0398478 7.64086914 175.02905273 C6.18412773 175.02353349 4.72738639 175.01799605 3.27064514 175.01243591 C2.19133224 175.00833206 1.11201935 175.00422821 0 175 C-0.90499762 136.44102499 -1.03133606 97.95390002 -0.60510254 59.38580322 C-0.53960129 53.31530152 -0.48161843 47.24473184 -0.42356598 41.17415512 C-0.29212501 27.44932498 -0.14884715 13.72465185 0 0 Z " fill="#F6F6F7" transform="translate(1175,345)"/>
<path d="M0 0 C11.55 0 23.1 0 35 0 C35.33 32.01 35.66 64.02 36 97 C40.455 91.555 40.455 91.555 45 86 C46.84734115 83.80673281 48.70027858 81.61814707 50.5625 79.4375 C54.42456432 74.89863442 58.18394931 70.29455368 61.8828125 65.62109375 C64.95844093 61.81344306 68.13432605 58.09250218 71.3203125 54.37695312 C73.36652775 51.98088211 75.24937809 49.62593287 77 47 C78.87295532 46.63923645 78.87295532 46.63923645 81.17431641 46.65942383 C82.46542831 46.65976372 82.46542831 46.65976372 83.78262329 46.66011047 C84.71287323 46.67559433 85.64312317 46.69107819 86.6015625 46.70703125 C87.55316254 46.71127609 88.50476257 46.71552094 89.48519897 46.71989441 C92.53208414 46.73672104 95.57831391 46.77438046 98.625 46.8125 C100.68749046 46.82754169 102.74999127 46.84123099 104.8125 46.85351562 C109.8752535 46.88663761 114.93751554 46.93844716 120 47 C119.04411466 48.27822273 118.08771673 49.55606215 117.13110352 50.83374023 C116.59856461 51.54537827 116.0660257 52.2570163 115.51734924 52.99021912 C109.62273665 60.79783477 103.16195842 68.14344784 96.73706055 75.51293945 C93.01973983 79.78914086 89.41653913 84.13409681 85.91015625 88.5859375 C82.9842675 92.28368647 79.9781278 95.91505191 76.98046875 99.5546875 C75.26785875 101.66927105 73.61444559 103.81005804 72 106 C73.70715543 109.95749667 76.33295853 113.15864475 79 116.5 C79.49129395 117.12092529 79.98258789 117.74185059 80.48876953 118.3815918 C83.55800025 122.24353446 86.69376736 126.04195705 89.875 129.8125 C94.49484026 135.30497675 98.8380726 140.98154846 103.16772461 146.7043457 C106.48288748 151.06908923 109.88506554 155.326606 113.4375 159.5 C117.34523237 164.11533154 120.8097377 168.86445581 124 174 C117.81074883 176.06308372 110.83138416 175.71349111 104.34301758 175.89941406 C102.50416479 175.96593503 100.66610484 176.06119613 98.83032227 176.18652344 C84.03526318 177.17526576 84.03526318 177.17526576 79.00427246 173.56973267 C75.44023656 170.07719119 72.72106253 166.11383283 70.14628601 161.85845947 C68.48442339 159.16410196 66.55983786 156.68981824 64.625 154.1875 C63.55958984 152.75277344 63.55958984 152.75277344 62.47265625 151.2890625 C58.85540417 146.44683248 55.11898105 141.69572529 51.39892578 136.93237305 C46.23222478 130.31408943 41.11391177 123.65909473 36 117 C35.98969254 117.71187973 35.97938507 118.42375946 35.96876526 119.1572113 C35.87095102 125.85282826 35.76845996 132.54835518 35.66066074 139.24381924 C35.6054012 142.6863574 35.55197653 146.128904 35.50268555 149.5715332 C35.44599199 153.52564526 35.38142505 157.47960944 35.31640625 161.43359375 C35.29969376 162.67523788 35.28298126 163.91688202 35.26576233 165.19615173 C35.2358445 166.90781273 35.2358445 166.90781273 35.20532227 168.65405273 C35.18977798 169.664431 35.1742337 170.67480927 35.15821838 171.71580505 C35 174 35 174 34 175 C31.56339554 175.10082764 29.15575299 175.13972603 26.71875 175.1328125 C25.99006714 175.13376923 25.26138428 175.13472595 24.51062012 175.13571167 C22.9672029 175.13639335 21.42378283 175.13453988 19.88037109 175.13037109 C17.510026 175.12502262 15.13987041 175.13031642 12.76953125 175.13671875 C11.27343708 175.13605797 9.77734303 175.1347768 8.28125 175.1328125 C7.21094543 175.13584885 7.21094543 175.13584885 6.11901855 175.13894653 C1.11495191 175.11495191 1.11495191 175.11495191 0 174 C-0.09704641 171.75975357 -0.12186656 169.51637946 -0.12025452 167.27403259 C-0.12153615 166.20694379 -0.12153615 166.20694379 -0.12284368 165.11829764 C-0.12450057 162.71677952 -0.11897374 160.31533012 -0.11352539 157.91381836 C-0.11324354 156.19940696 -0.11340122 154.48499544 -0.1139679 152.77058411 C-0.11425594 148.10136027 -0.10835804 143.43216188 -0.10139394 138.76294398 C-0.09516161 133.88888473 -0.0945567 129.01482495 -0.09336853 124.14076233 C-0.09025486 114.9043057 -0.08204098 105.66786085 -0.07201904 96.43140942 C-0.06085902 85.91889135 -0.05534774 75.40637272 -0.05032361 64.89385021 C-0.0398584 43.26255877 -0.02151247 21.63128347 0 0 Z " fill="#F4F4F5" transform="translate(638,345)"/>
<path d="M0 0 C0.7122876 0.61787384 0.7122876 0.61787384 1.43896484 1.24822998 C2.06496582 1.78860901 2.6909668 2.32898804 3.3359375 2.88574219 C3.9551709 3.42140808 4.5744043 3.95707397 5.21240234 4.50897217 C13.55664899 11.46887388 22.11340453 14.48126104 32.92578125 14.33203125 C36.93754227 13.89874067 40.20386752 12.6652016 43.84375 10.97265625 C45.89102225 10.04915844 47.81008357 9.47282287 50 9 C51.20355769 11.40711537 51.15661901 12.97431454 51.20532227 15.66479492 C51.22526245 16.65381302 51.24520264 17.64283112 51.26574707 18.66181946 C51.2824646 19.75697372 51.29918213 20.85212799 51.31640625 21.98046875 C51.34764587 23.72066536 51.34764587 23.72066536 51.3795166 25.49601746 C51.43496749 28.71667095 51.48530628 31.93734956 51.53242874 35.15813446 C51.56244451 37.18375541 51.59433938 39.20933923 51.62667847 41.23492432 C52.20882503 78.1538868 52.09622788 115.07773453 52 152 C52.66 152.33 53.32 152.66 54 153 C53.67 177.75 53.34 202.5 53 228 C45.12299958 229.12528577 45.12299958 229.12528577 41.09033203 229.12939453 C39.74456589 229.13412277 39.74456589 229.13412277 38.37161255 229.13894653 C36.95403152 229.13591019 36.95403152 229.13591019 35.5078125 229.1328125 C34.02799393 229.13424759 34.02799393 229.13424759 32.51828003 229.13571167 C30.44577978 229.13638915 28.37327736 229.13456512 26.30078125 229.13037109 C23.11453569 229.1249823 19.9284289 229.13034823 16.7421875 229.13671875 C14.72656219 229.13605856 12.71093696 229.13477864 10.6953125 229.1328125 C9.2595134 229.13584885 9.2595134 229.13584885 7.79470825 229.13894653 C6.91644379 229.13579437 6.03817932 229.13264221 5.13330078 229.12939453 C4.35721466 229.12859894 3.58112854 229.12780334 2.78152466 229.12698364 C1 229 1 229 0 228 C-0.09797065 225.06695272 -0.12991804 222.15744612 -0.12025452 219.22398376 C-0.12110894 218.2920794 -0.12196337 217.36017504 -0.12284368 216.40003115 C-0.12450134 213.25226407 -0.11897247 210.10454934 -0.11352539 206.95678711 C-0.11324355 204.71036277 -0.11340118 202.46393833 -0.1139679 200.21751404 C-0.11425601 194.09792571 -0.10835706 187.97835679 -0.10139394 181.85877299 C-0.09516269 175.47124373 -0.09455678 169.08371408 -0.09336853 162.69618225 C-0.09060882 151.96826781 -0.08435329 141.24036189 -0.07543945 130.51245117 C-0.06626606 119.46069372 -0.05918487 108.40893822 -0.05493164 97.35717773 C-0.05466892 96.67640547 -0.05440619 95.9956332 -0.05413551 95.29423147 C-0.05283051 91.87913387 -0.05156679 88.46403625 -0.05032361 85.04893863 C-0.03995012 56.69928749 -0.02225692 28.34964413 0 0 Z " fill="#A33EA2" transform="translate(301,300)"/>
<path d="M0 0 C11.22 0 22.44 0 34 0 C34.71258434 10.34628272 35.07924796 20.59400878 35.02734375 30.96484375 C35.01908066 32.66624008 35.01908066 32.66624008 35.01065063 34.40200806 C34.98307311 39.10638685 34.94803573 43.81063808 34.90405273 48.51489258 C34.8736923 51.99821459 34.85604859 55.48143108 34.83984375 58.96484375 C34.82638412 60.01091293 34.8129245 61.05698212 34.79905701 62.13475037 C34.76797307 71.35454225 35.04426731 82.42298452 41 90 C49.42371252 96.98923973 57.33561002 97.95485987 68 97 C73.86594809 95.20140777 78.9047755 92.44759512 82 87 C85.85173932 78.26526665 85.4773819 69.42055515 85.51171875 60.05859375 C85.52858612 58.32266486 85.5467391 56.58674803 85.56611633 54.85084534 C85.61339921 50.30866262 85.64334847 45.76652881 85.66955566 41.22418213 C85.70474229 35.75984312 85.76169265 30.29569186 85.81494904 24.83150482 C85.89320809 16.55436117 85.94400599 8.27745898 86 0 C97.22 0 108.44 0 120 0 C120.11358469 10.80627228 120.20504954 21.61213915 120.25906086 32.41887665 C120.28500162 37.43849614 120.32011105 42.45768121 120.37719727 47.47705078 C120.43207703 52.33357426 120.46153677 57.18968356 120.47438622 62.04649353 C120.48352681 63.8866171 120.50137189 65.72672157 120.52865028 67.56666565 C120.77862303 85.14891797 118.01587582 100.85329949 105.8203125 114.42578125 C92.76057002 127.16438252 76.39201221 131.52764533 58.59326172 131.42211914 C40.96212989 130.91356086 25.32892712 124.86310941 13 112 C3.48801405 101.59341269 -0.36024026 89.21697355 -0.22705078 75.26733398 C-0.22734283 74.44671982 -0.22763489 73.62610565 -0.22793579 72.78062439 C-0.22655652 70.10233513 -0.21106235 67.42433365 -0.1953125 64.74609375 C-0.19157737 62.87565767 -0.18873276 61.00521963 -0.18673706 59.13478088 C-0.17913998 54.23740129 -0.15952562 49.34014234 -0.1373291 44.44281006 C-0.11678567 39.43519726 -0.10771725 34.42756476 -0.09765625 29.41992188 C-0.07627567 19.61322001 -0.04112594 9.80663896 0 0 Z " fill="#F7F6F7" transform="translate(1309,392)"/>
<path d="M0 0 C1.92318535 1.75490663 3.38671695 3.58083238 4.875 5.7109375 C3.28084497 9.62303058 0.73606668 12.08311836 -2.25 15.0234375 C-2.73702393 15.50401611 -3.22404785 15.98459473 -3.72583008 16.47973633 C-7.71727141 20.38740909 -11.84648341 24.11894506 -16.125 27.7109375 C-16.57230469 27.32421875 -17.01960937 26.9375 -17.48046875 26.5390625 C-18.7377729 25.45601159 -19.99837222 24.37677779 -21.26171875 23.30078125 C-22.7251332 22.05212364 -24.17724748 20.79022095 -25.625 19.5234375 C-32.69890006 14.39485996 -40.57706725 12.91445791 -49.125 13.7109375 C-53.0310959 14.63161175 -56.13571031 15.81439372 -59.125 18.5234375 C-60.48903585 21.50726593 -60.59823083 23.46592609 -60.125 26.7109375 C-54.27192183 33.7284763 -44.11090555 35.07236349 -35.62231445 37.1953125 C-5.17407491 44.81354873 -5.17407491 44.81354873 3.36328125 58.01171875 C9.00925925 67.72916257 9.36790507 79.08453086 7.2265625 90.0234375 C3.70076694 100.63095919 -3.37001693 108.40443792 -13.125 113.7109375 C-32.43665948 121.92957097 -54.52612523 122.61104855 -74.15869141 114.91357422 C-84.37941664 110.67313715 -95.80887515 104.32161919 -101.4453125 94.3828125 C-101.66960938 93.83109375 -101.89390625 93.279375 -102.125 92.7109375 C-101.45855469 92.17726563 -100.79210937 91.64359375 -100.10546875 91.09375 C-93.95203358 86.13685617 -93.95203358 86.13685617 -88.0859375 80.8515625 C-87.59971924 80.38991699 -87.11350098 79.92827148 -86.61254883 79.45263672 C-85.24375277 78.13988696 -83.88912071 76.81241673 -82.53515625 75.484375 C-80.125 73.7109375 -80.125 73.7109375 -77.97265625 73.73828125 C-75.82630402 74.86817915 -74.9122507 75.93601551 -73.5 77.8984375 C-67.11108968 85.67693582 -57.96060594 89.45869101 -48.125 90.7109375 C-41.41847366 90.82512353 -34.7813691 90.68568335 -29.125 86.7109375 C-26.79179555 83.21113082 -26.41185978 81.17050207 -26.61035156 77.0390625 C-26.96189363 74.313086 -26.96189363 74.313086 -30.2109375 72.171875 C-36.42013655 68.62081301 -43.47271114 67.31672941 -50.375 65.7109375 C-66.43231007 61.93591272 -81.52102929 58.13939292 -91.125 43.5234375 C-96.31901682 34.75853411 -96.36039876 24.36882475 -94.54296875 14.57421875 C-90.86543296 2.80274574 -81.44615231 -4.8569849 -70.91015625 -10.46875 C-47.5676017 -21.70927715 -19.60760862 -15.35448763 0 0 Z " fill="#F6F5F6" transform="translate(860.125,403.2890625)"/>
<path d="M0 0 C45.19694554 0.90756919 86.20370683 18.14347941 117.88671875 50.6953125 C137.67927686 72.28054224 155.92111902 100.35696964 160 130 C158.53240234 130.03867187 158.53240234 130.03867187 157.03515625 130.078125 C149.26044835 130.41449388 142.87882024 131.11324656 136 135 C134.66899763 135.67130835 133.3362831 136.33926578 132 137 C131.62875 135.865625 131.2575 134.73125 130.875 133.5625 C130.5965625 132.73878906 130.318125 131.91507813 130.03125 131.06640625 C129.26499371 128.78795477 128.51799632 126.5030078 127.78125 124.21484375 C116.89581609 91.16000855 93.99768875 61.89087638 62.7890625 45.76953125 C38.9447618 33.95763255 15.28050736 30.84385756 -11 31 C-9.98968295 28.13743503 -8.95620996 25.94161328 -7.125 23.5 C-2.4987673 16.82921502 -0.98832094 7.89658446 0 0 Z " fill="#F07B2C" transform="translate(374,276)"/>
<path d="M0 0 C2 1 2 1 2.65087891 2.69555664 C2.84085449 3.42637451 3.03083008 4.15719238 3.2265625 4.91015625 C3.44957031 5.72758301 3.67257813 6.54500977 3.90234375 7.38720703 C4.14082031 8.27005371 4.37929687 9.15290039 4.625 10.0625 C7.37516901 19.72091391 11.13310822 28.24156519 16 37 C16.49242187 37.90878906 16.98484375 38.81757813 17.4921875 39.75390625 C35.02627359 70.61191651 65.1449422 91.61099644 99 101 C102.9847961 102.07741649 106.97151053 103.09951412 111 104 C110.49339844 104.91265625 110.49339844 104.91265625 109.9765625 105.84375 C106.59038992 112.49865565 105.24490731 118.42668648 104.63330078 125.77929688 C104.48013998 127.52558459 104.24702364 129.26450056 104 131 C98.30453293 133.84773353 86.2465635 128.44608585 80.38671875 126.55859375 C54.872994 117.86600782 33.95080455 103.95080455 15 85 C14.08347656 84.15308594 14.08347656 84.15308594 13.1484375 83.2890625 C-7.23341497 64.16424058 -22.65162175 34.58299639 -27 7 C-26.09378906 6.96261719 -25.18757812 6.92523438 -24.25390625 6.88671875 C-11.16665835 6.27046421 -11.16665835 6.27046421 0 0 Z " fill="#5F20DB" transform="translate(238,471)"/>
<path d="M0 0 C0.24911232 4.81936528 0.42948743 9.6349138 0.54931641 14.45922852 C0.59930035 16.09596067 0.66732082 17.73225314 0.75439453 19.36743164 C1.45798802 32.93023077 1.45798802 32.93023077 -2.09692383 37.97680664 C-4.62171289 40.24600382 -7.18601715 42.10896201 -10 44 C-30.25521051 62.02625775 -40.79095465 86.44980206 -48 112 C-49.03060547 111.47599609 -49.03060547 111.47599609 -50.08203125 110.94140625 C-50.98308594 110.48636719 -51.88414062 110.03132813 -52.8125 109.5625 C-53.70582031 109.11003906 -54.59914062 108.65757812 -55.51953125 108.19140625 C-59.90566237 106.08468185 -63.9052547 105.70987812 -68.6875 105.4375 C-69.38939453 105.39431641 -70.09128906 105.35113281 -70.81445312 105.30664062 C-72.54275206 105.2008264 -74.2713511 105.09993419 -76 105 C-74.87682661 97.66100368 -73.20080129 90.91367796 -70.5 84 C-70.15106689 83.1013623 -69.80213379 82.20272461 -69.44262695 81.27685547 C-60.88424862 59.81788355 -28.35375672 0 0 0 Z " fill="#A3409E" transform="translate(287,301)"/>
<path d="M0 0 C6.78143149 5.00313047 11.35756872 12.7375651 13 21 C13.58905721 29.54132952 11.68892985 39.29166653 6 46 C-1.18009215 52.01651991 -8.97998369 55.6807291 -18.421875 55.34765625 C-26.12924966 54.30832845 -33.54056218 50.52958049 -39 45 C-45.1513895 36.40949745 -46.85883869 29.53917769 -46 19 C-43.65258646 9.68105108 -36.94774518 2.74864527 -28.89453125 -2.08984375 C-19.98072725 -6.37214547 -8.30522752 -4.93626397 0 0 Z " fill="#B64D99" transform="translate(347,250)"/>
<path d="M0 0 C6.33834835 5.6592396 10.37837728 11.32670913 11.30859375 19.81640625 C11.65183859 27.96067028 10.32178901 34.75222556 5.234375 41.2578125 C-0.38671357 47.25511566 -6.95031795 51.45667795 -15.26171875 52.203125 C-24.81005768 52.38763396 -31.60085988 50.08098439 -38.98828125 43.95703125 C-44.78060099 38.32217263 -47.55484392 31.71865445 -48.3125 23.6875 C-47.51293144 14.25259103 -44.27019601 7.07206834 -37.44140625 0.5 C-26.48165055 -8.33088229 -11.25301818 -7.84357724 0 0 Z " fill="#772ACA" transform="translate(235,419)"/>
<path d="M0 0 C6.25210755 5.08774744 10.98216212 12.2922843 12 20.35546875 C12.49230572 29.04774153 9.53559044 36.67632957 4 43.3125 C-2.00183316 49.57187451 -8.75220751 52.4486763 -17.375 52.6875 C-26.24968319 52.56932845 -33.11898947 49.34881593 -39.55859375 43.3125 C-45.46556044 36.54609012 -46.73377439 28.90942653 -46.65234375 20.16015625 C-45.91897768 13.26081919 -43.20376979 7.33463045 -38.28125 2.40234375 C-26.61460289 -6.7290512 -12.60855146 -8.67892644 0 0 Z " fill="#F0792E" transform="translate(545.25,418.625)"/>
<path d="M0 0 C1.0725 0.53625 2.145 1.0725 3.25 1.625 C8.43298485 6.10121419 12.78090564 13.22725356 14 20 C14.07455527 27.49813033 13.14680951 33.69457732 9 40 C8.34 41.03125 7.68 42.0625 7 43.125 C2.19910711 48.43662617 -4.60580933 51.54866438 -11.61328125 52.48046875 C-21.59471696 52.70561392 -27.61132234 51.23686381 -35.25 44.875 C-41.92381957 38.47840063 -44.15290802 33.29330471 -44.5625 24.0625 C-44.2711044 15.33943182 -41.61251968 9.16944079 -35.3125 3.125 C-24.27921214 -5.61485162 -12.38314898 -6.24617391 0 0 Z " fill="#7D2DC0" transform="translate(394,573)"/>
<path d="M0 0 C0.67546875 0.34933594 1.3509375 0.69867188 2.046875 1.05859375 C2.93890625 1.51363281 3.8309375 1.96867187 4.75 2.4375 C5.63171875 2.88996094 6.5134375 3.34242188 7.421875 3.80859375 C12.02476728 5.93568791 16.19137549 6.23462619 21.25 6.5625 C23.14492188 6.68818359 23.14492188 6.68818359 25.078125 6.81640625 C26.04234375 6.87699219 27.0065625 6.93757813 28 7 C20.77974203 36.94283454 6.11857668 61.97455673 -14 85 C-17.16437573 82.21979769 -19.22131006 78.72082452 -21.4375 75.1875 C-22.20653719 73.97234343 -22.97606457 72.75749695 -23.74609375 71.54296875 C-24.30272705 70.65037354 -24.30272705 70.65037354 -24.87060547 69.73974609 C-25.95763441 68.06526096 -27.15142128 66.46157856 -28.34765625 64.86328125 C-30 62 -30 62 -30 59.45703125 C-28.75496717 56.39794668 -27.08738996 54.24962622 -25 51.6875 C-13.02105887 36.31593011 -5.96246871 18.40767693 0 0 Z " fill="#D35D60" transform="translate(506,471)"/>
<path d="M0 0 C2.64104864 2.64104864 2.23999602 4.55336297 2.25816262 8.14711344 C2.25233693 9.01675113 2.24651125 9.88638881 2.24050903 10.78237915 C2.24221788 11.70288728 2.24392673 12.62339541 2.24568737 13.57179773 C2.24899759 16.67505872 2.23795342 19.77810638 2.22705078 22.88134766 C2.226487 25.09836319 2.22680258 27.31537909 2.22793579 29.53239441 C2.22851159 35.56723992 2.21672062 41.60200655 2.20278788 47.63683367 C2.19031825 53.9376031 2.189113 60.23837418 2.18673706 66.53915405 C2.18121934 77.11986639 2.16871159 87.70055276 2.15087891 98.28125 C2.13252813 109.18066258 2.1183677 120.08006728 2.10986328 130.97949219 C2.10933783 131.65104075 2.10881239 132.3225893 2.10827102 133.01448782 C2.10566099 136.38336253 2.10313356 139.7522373 2.10064721 143.12111211 C2.07972012 171.0807663 2.04303009 199.04037049 2 227 C18.5 227 35 227 52 227 C52 203.9 52 180.8 52 157 C52.66 157.33 53.32 157.66 54 158 C53.67 181.1 53.34 204.2 53 228 C45.12299958 229.12528577 45.12299958 229.12528577 41.09033203 229.12939453 C39.74456589 229.13412277 39.74456589 229.13412277 38.37161255 229.13894653 C36.95403152 229.13591019 36.95403152 229.13591019 35.5078125 229.1328125 C34.02799393 229.13424759 34.02799393 229.13424759 32.51828003 229.13571167 C30.44577978 229.13638915 28.37327736 229.13456512 26.30078125 229.13037109 C23.11453569 229.1249823 19.9284289 229.13034823 16.7421875 229.13671875 C14.72656219 229.13605856 12.71093696 229.13477864 10.6953125 229.1328125 C9.2595134 229.13584885 9.2595134 229.13584885 7.79470825 229.13894653 C6.91644379 229.13579437 6.03817932 229.13264221 5.13330078 229.12939453 C4.35721466 229.12859894 3.58112854 229.12780334 2.78152466 229.12698364 C1 229 1 229 0 228 C-0.09797065 225.06695272 -0.12991804 222.15744612 -0.12025452 219.22398376 C-0.12110894 218.2920794 -0.12196337 217.36017504 -0.12284368 216.40003115 C-0.12450134 213.25226407 -0.11897247 210.10454934 -0.11352539 206.95678711 C-0.11324355 204.71036277 -0.11340118 202.46393833 -0.1139679 200.21751404 C-0.11425601 194.09792571 -0.10835706 187.97835679 -0.10139394 181.85877299 C-0.09516269 175.47124373 -0.09455678 169.08371408 -0.09336853 162.69618225 C-0.09060882 151.96826781 -0.08435329 141.24036189 -0.07543945 130.51245117 C-0.06626606 119.46069372 -0.05918487 108.40893822 -0.05493164 97.35717773 C-0.05466892 96.67640547 -0.05440619 95.9956332 -0.05413551 95.29423147 C-0.05283051 91.87913387 -0.05156679 88.46403625 -0.05032361 85.04893863 C-0.03995012 56.69928749 -0.02225692 28.34964413 0 0 Z " fill="#492372" transform="translate(301,300)"/>
<path d="M0 0 C0.33 0 0.66 0 1 0 C1.00423194 0.74029387 1.00846388 1.48058773 1.01282406 2.24331474 C1.11602057 20.23630688 1.22464167 38.22925872 1.33933926 56.22218132 C1.39467405 64.92333496 1.44815646 73.62449269 1.49731445 82.32568359 C1.54015316 89.90750718 1.58643035 97.48930055 1.63687855 105.07107747 C1.66348202 109.08748434 1.68833515 113.1038852 1.70907402 117.120327 C1.72863208 120.89757988 1.75277334 124.67477522 1.78049088 128.45197678 C1.78986572 129.84115048 1.79753944 131.23033683 1.80341911 132.61952972 C1.81167281 134.51060974 1.82653853 136.4016575 1.84178162 138.29269409 C1.84823417 139.35275602 1.85468672 140.41281796 1.8613348 141.50500298 C1.83442744 143.99959758 1.83442744 143.99959758 3 146 C2.01 146 1.02 146 0 146 C-0.30760393 127.25945539 -0.60367559 108.51876269 -0.8859272 89.77781868 C-1.01724475 81.07655456 -1.1523703 72.37538038 -1.29638672 63.67431641 C-1.42186619 56.09262336 -1.54027614 48.51085896 -1.65011108 40.92892253 C-1.70854526 36.91239978 -1.77057713 32.89600376 -1.84106827 28.879673 C-1.90724952 25.10254899 -1.96400673 21.32540278 -2.01341248 17.54802322 C-2.03326722 16.15878345 -2.05661997 14.76958877 -2.08366013 13.38047028 C-2.11995411 11.4895714 -2.14265663 9.59842597 -2.1645813 7.70730591 C-2.18117357 6.64724398 -2.19776585 5.58718204 -2.21486092 4.49499702 C-2 2 -2 2 0 0 Z " fill="#AC4A6B" transform="translate(353,306)"/>
<path d="M0 0 C18.48 0 36.96 0 56 0 C54.15452072 3.69095856 52.03896197 6.87194912 49.625 10.1875 C48.72850232 11.42790554 47.83270125 12.66881476 46.9375 13.91015625 C46.463125 14.56773926 45.98875 15.22532227 45.5 15.90283203 C43.92111037 18.11029654 42.36435051 20.3320461 40.8125 22.55859375 C40.28188965 23.31825439 39.7512793 24.07791504 39.20458984 24.8605957 C38.17068767 26.34273522 37.13964638 27.82687553 36.11181641 29.31323242 C33.63648819 32.85174124 31.20529713 36.06814054 28 39 C28.33 37.02 28.66 35.04 29 33 C29.66 33 30.32 33 31 33 C32.20628008 30.66785852 33.1654738 28.50357861 34 26 C34.66 26 35.32 26 36 26 C36 25.01 36 24.02 36 23 C37.6459651 21.31288577 39.31237149 19.6454378 41 18 C41 17.34 41 16.68 41 16 C42.66666667 14.33333333 44.33333333 12.66666667 46 11 C46 10.34 46 9.68 46 9 C47.6459651 7.31288577 49.31237149 5.6454378 51 4 C51 3.67 51 3.34 51 3 C34.33617041 1.81124273 17.69514315 1.89586563 1 2 C0.67 1.34 0.34 0.68 0 0 Z " fill="#D05E58" transform="translate(397,401)"/>
<path d="M0 0 C3.76687864 1.88343932 4.79421646 2.69132469 7 6 C5.35 5.67 3.7 5.34 2 5 C2.07001221 5.64469238 2.14002441 6.28938477 2.2121582 6.95361328 C2.94939611 14.27384465 3.19176219 21.52006185 3.1875 28.875 C3.18814453 30.03942627 3.18878906 31.20385254 3.18945312 32.40356445 C3.12569684 43.01826128 2.26434136 53.46758492 1 64 C0.67 64 0.34 64 0 64 C0 42.88 0 21.76 0 0 Z " fill="#B54B89" transform="translate(302,302)"/>
<path d="M0 0 C0.99 0 1.98 0 3 0 C3.28721924 0.51908936 3.57443848 1.03817871 3.87036133 1.57299805 C5.1834974 3.94500387 6.49798679 6.31625711 7.8125 8.6875 C8.26431641 9.50412109 8.71613281 10.32074219 9.18164062 11.16210938 C9.62314453 11.95810547 10.06464844 12.75410156 10.51953125 13.57421875 C10.94572754 14.34556152 11.37192383 15.1169043 11.81103516 15.91162109 C12.77675676 17.60788035 13.82086258 19.25933575 14.88671875 20.89453125 C15.25410156 21.58933594 15.62148438 22.28414062 16 23 C15.67 23.99 15.34 24.98 15 26 C11.04 26.495 11.04 26.495 7 27 C6.96261719 26.154375 6.92523438 25.30875 6.88671875 24.4375 C6.38583343 15.79477295 5.59005605 8.92102178 0 2 C0 1.34 0 0.68 0 0 Z " fill="#8231A5" transform="translate(408,574)"/>
<path d="M0 0 C0.33 0 0.66 0 1 0 C0.85950482 1.47968324 0.71245174 2.95874516 0.5625 4.4375 C0.48128906 5.26121094 0.40007812 6.08492188 0.31640625 6.93359375 C0 9 0 9 -1 10 C-1.23075082 11.34747084 -1.41153063 12.70377565 -1.5625 14.0625 C-1.7790625 16.0115625 -1.7790625 16.0115625 -2 18 C-0.72125 17.7525 0.5575 17.505 1.875 17.25 C7.50172499 16.60796482 12.14238275 18.17174648 17 21 C17.66 21.99 18.32 22.98 19 24 C17.824375 23.525625 16.64875 23.05125 15.4375 22.5625 C8.81468273 20.31244029 1.93094945 20.26481889 -5 20 C-3.90109517 13.08336373 -2.43430815 6.57263201 0 0 Z " fill="#642996" transform="translate(216,386)"/>
<path d="M0 0 C0.99 0 1.98 0 3 0 C3.185625 1.2065625 3.185625 1.2065625 3.375 2.4375 C3.58125 3.283125 3.7875 4.12875 4 5 C4.66 5.33 5.32 5.66 6 6 C9.41103785 9.96861134 11.63539407 13.91374154 13 19 C13.721875 18.67 14.44375 18.34 15.1875 18 C18.01697427 16.99396471 20.02895466 16.83022598 23 17 C19.8745041 19.64465038 16.91211733 20.84414715 13 22 C8.03820022 14.96623987 3.97937777 7.61732964 0 0 Z " fill="#84368E" transform="translate(423,573)"/>
<path d="M0 0 C0.99 0 1.98 0 3 0 C4.36680153 2.26404542 5.71844445 4.53501021 7.0625 6.8125 C7.45244141 7.45509766 7.84238281 8.09769531 8.24414062 8.75976562 C9.24130759 10.4628915 10.12812687 12.22945858 11 14 C10.67 14.99 10.34 15.98 10 17 C9.67 17 9.34 17 9 17 C8.67 20.3 8.34 23.6 8 27 C7.67 27 7.34 27 7 27 C6.96261719 26.154375 6.92523438 25.30875 6.88671875 24.4375 C6.38583343 15.79477295 5.59005605 8.92102178 0 2 C0 1.34 0 0.68 0 0 Z " fill="#74348F" transform="translate(408,574)"/>
<path d="M0 0 C-1.13314938 3.39944813 -1.46546563 3.59569101 -4.5 5.125 C-13.13947994 9.10773898 -20.89656841 7.86381594 -30 6 C-26.67293362 4.9671903 -23.83876917 5.0184242 -20.375 5.1875 C-12.8019461 5.28030703 -6.85592781 0 0 0 Z " fill="#A44959" transform="translate(351,309)"/>
<path d="M0 0 C0.66 1.32 1.32 2.64 2 4 C2.55461914 3.98952637 3.10923828 3.97905273 3.68066406 3.96826172 C6.20372959 3.92657996 8.72672253 3.90063562 11.25 3.875 C12.55904297 3.84986328 12.55904297 3.84986328 13.89453125 3.82421875 C14.73886719 3.81777344 15.58320313 3.81132812 16.453125 3.8046875 C17.22817383 3.79421387 18.00322266 3.78374023 18.80175781 3.77294922 C21 4 21 4 25 6 C15.76 6 6.52 6 -3 6 C-1 1 -1 1 0 0 Z " fill="#924E33" transform="translate(366,301)"/>
<path d="M0 0 C0.66 0.66 1.32 1.32 2 2 C-3.34902924 2.59198743 -8.60884846 3.14187241 -14 3 C-14.33 3.66 -14.66 4.32 -15 5 C-16.32 4.34 -17.64 3.68 -19 3 C-12.67751333 0.13698717 -6.95315031 -0.9013343 0 0 Z " fill="#72319B" transform="translate(384,569)"/>
<path d="M0 0 C7.59 0 15.18 0 23 0 C19.82141437 3.17858563 16.54807355 3.15316478 12.1875 3.1875 C7.75425844 3.15466117 4.17453872 2.45201347 0 1 C0 0.67 0 0.34 0 0 Z " fill="#5124A5" transform="translate(205,468)"/>
<path d="M0 0 C5.94 0 11.88 0 18 0 C17.67 1.65 17.34 3.3 17 5 C16.01 5.33 15.02 5.66 14 6 C14 5.01 14 4.02 14 3 C12.98679687 3.05220703 12.98679687 3.05220703 11.953125 3.10546875 C11.06109375 3.13253906 10.1690625 3.15960938 9.25 3.1875 C8.36828125 3.22230469 7.4865625 3.25710938 6.578125 3.29296875 C4 3 4 3 0 0 Z " fill="#BA5745" transform="translate(516,478)"/>
<path d="M0 0 C-1.47130373 4.3573226 -3.83080615 7.71934134 -6.625 11.3125 C-7.04523438 11.86228516 -7.46546875 12.41207031 -7.8984375 12.97851562 C-8.92720039 14.32292168 -9.9629009 15.66201413 -11 17 C-12 14 -12 14 -11 11 C-10.34 11 -9.68 11 -9 11 C-7.79371992 8.66785852 -6.8345262 6.50357861 -6 4 C-5.34 4 -4.68 4 -4 4 C-4 3.01 -4 2.02 -4 1 C-2 0 -2 0 0 0 Z " fill="#AE5059" transform="translate(437,423)"/>
<path d="M0 0 C3.96 0 7.92 0 12 0 C9.4345406 2.5654594 7.52313332 2.54046087 4 3 C4 6.63 4 10.26 4 14 C1.63235056 9.26470113 0.95698667 5.1950705 0 0 Z " fill="#491EA2" transform="translate(211,478)"/>
<path d="M0 0 C-3.2603118 1.93773248 -5.72861936 2.27072187 -9.5 2.25 C-10.4384375 2.25515625 -11.376875 2.2603125 -12.34375 2.265625 C-15.04047676 1.99595232 -16.68949293 1.3732259 -19 0 C-13.60102685 -2.69948658 -5.7622264 -0.83814202 0 0 Z " fill="#B05F39" transform="translate(537,469)"/>
<path d="M0 0 C0.94101563 0.07863281 1.88203125 0.15726562 2.8515625 0.23828125 C5.375 0.6875 5.375 0.6875 8.375 2.6875 C1.115 2.6875 -6.145 2.6875 -13.625 2.6875 C-9.07750841 -0.34416106 -5.35866638 -0.49453257 0 0 Z " fill="#672B9C" transform="translate(219.625,413.3125)"/>
<path d="M0 0 C2.4294516 3.6441774 2.16179575 5.71241272 2 10 C2.66 10 3.32 10 4 10 C4.66 12.97 5.32 15.94 6 19 C1.99727265 14.99727265 0.30754335 10.51752712 -0.1875 4.85546875 C-0.1875 3.23577286 -0.10317488 1.61640642 0 0 Z " fill="#461C9B" transform="translate(187,439)"/>
<path d="M0 0 C2 2 2 2 2.23046875 3.953125 C2.1472759 8.40016083 1.89765291 12.62394205 1 17 C0.67 17 0.34 17 0 17 C-1.13770571 11.31147144 -1.86128204 5.58384613 0 0 Z " fill="#6023C3" transform="translate(189,431)"/>
<path d="M0 0 C3.76687864 1.88343932 4.79421646 2.69132469 7 6 C5.35 5.67 3.7 5.34 2 5 C1.67 7.97 1.34 10.94 1 14 C0.67 14 0.34 14 0 14 C0 9.38 0 4.76 0 0 Z " fill="#AA456F" transform="translate(302,302)"/>
<path d="M0 0 C5.852795 0.51482919 11.3297637 1.45357192 17 3 C17 3.33 17 3.66 17 4 C10.54107286 4.40368295 5.93891422 3.5915262 0 1 C0 0.67 0 0.34 0 0 Z " fill="#5625A4" transform="translate(324,570)"/>
<path d="M0 0 C1.32 0 2.64 0 4 0 C4.33 1.32 4.66 2.64 5 4 C4.34 4 3.68 4 3 4 C2.34 5.98 1.68 7.96 1 10 C1.99 10.33 2.98 10.66 4 11 C2.68 11 1.36 11 0 11 C0 7.37 0 3.74 0 0 Z " fill="#792E9E" transform="translate(416,590)"/>
<path d="M0 0 C2.31 0.33 4.62 0.66 7 1 C5.35 4.63 3.7 8.26 2 12 C1.67 12 1.34 12 1 12 C1.09539062 11.30132813 1.19078125 10.60265625 1.2890625 9.8828125 C1.39992188 8.97273437 1.51078125 8.06265625 1.625 7.125 C1.74101562 6.22007812 1.85703125 5.31515625 1.9765625 4.3828125 C1.98429687 3.59648438 1.99203125 2.81015625 2 2 C1.34 1.34 0.68 0.68 0 0 Z " fill="#58249B" transform="translate(342,574)"/>
<path d="M0 0 C0.33 0.99 0.66 1.98 1 3 C-1.97 6.3 -4.94 9.6 -8 13 C-8 9.00717059 -6.52191924 7.84668408 -4 4.8125 C-3.2575 3.91144531 -2.515 3.01039063 -1.75 2.08203125 C-1.1725 1.39496094 -0.595 0.70789063 0 0 Z " fill="#BFBEC7" transform="translate(683,431)"/>
<path d="M0 0 C1.98 0 3.96 0 6 0 C4.47291037 3.43595166 2.40072955 6.11912454 0 9 C0.185625 8.071875 0.37125 7.14375 0.5625 6.1875 C1.24123881 2.98656229 1.24123881 2.98656229 0 0 Z " fill="#B25144" transform="translate(447,401)"/>
<path d="M0 0 C0.66 0.66 1.32 1.32 2 2 C2.66 1.67 3.32 1.34 4 1 C4.33 2.32 4.66 3.64 5 5 C4.01 5.495 4.01 5.495 3 6 C2.53248212 8.35599235 2.53248212 8.35599235 2.375 11.0625 C2.30023438 11.98160156 2.22546875 12.90070312 2.1484375 13.84765625 C2.09945313 14.55792969 2.05046875 15.26820313 2 16 C1.67 16 1.34 16 1 16 C0.67 10.72 0.34 5.44 0 0 Z " fill="#532577" transform="translate(414,585)"/>
<path d="M0 0 C0.33 0.99 0.66 1.98 1 3 C0.52949219 3.39832031 0.05898437 3.79664063 -0.42578125 4.20703125 C-1.04839844 4.73683594 -1.67101563 5.26664062 -2.3125 5.8125 C-2.92738281 6.33457031 -3.54226563 6.85664063 -4.17578125 7.39453125 C-5.85424679 8.87172469 -7.43882034 10.40039131 -9 12 C-9.66 11.34 -10.32 10.68 -11 10 C-10.37351562 9.52949219 -9.74703125 9.05898438 -9.1015625 8.57421875 C-8.28429688 7.95160156 -7.46703125 7.32898438 -6.625 6.6875 C-5.81289062 6.07261719 -5.00078125 5.45773437 -4.1640625 4.82421875 C-1.80220611 3.00519317 -1.80220611 3.00519317 0 0 Z " fill="#C2C1CB" transform="translate(1122,476)"/>
<path d="M0 0 C2.1899142 2.1899142 2.73972043 2.96340505 3 6 C1.75 8.75 1.75 8.75 0 11 C-0.99 11 -1.98 11 -3 11 C-2.34 10.01 -1.68 9.02 -1 8 C-0.54860541 5.9507906 -0.54860541 5.9507906 -0.375 3.8125 C-0.25125 2.554375 -0.1275 1.29625 0 0 Z " fill="#A7A7B2" transform="translate(834,479)"/>
<path d="M0 0 C2.97 1.65 5.94 3.3 9 5 C9 5.66 9 6.32 9 7 C5.59687262 5.94124926 2.98646769 4.99097846 0 3 C0 2.01 0 1.02 0 0 Z " fill="#A44A6B" transform="translate(310,308)"/>
<path d="M0 0 C1.32 0.33 2.64 0.66 4 1 C2.35 2.65 0.7 4.3 -1 6 C-1.99 5.67 -2.98 5.34 -4 5 C-2.68 3.35 -1.36 1.7 0 0 Z " fill="#CD6930" transform="translate(508,420)"/>
<path d="M0 0 C-3.25852365 2.1723491 -6.59244728 4.07119658 -10 6 C-10.33 5.01 -10.66 4.02 -11 3 C-9.68 3 -8.36 3 -7 3 C-7 2.34 -7 1.68 -7 1 C-3.375 -1.125 -3.375 -1.125 0 0 Z " fill="#AB5D36" transform="translate(516,407)"/>
<path d="M0 0 C0.66 0.99 1.32 1.98 2 3 C1.3203125 5.26171875 1.3203125 5.26171875 0.125 7.6875 C-0.45894531 8.89986328 -0.45894531 8.89986328 -1.0546875 10.13671875 C-1.52261719 11.05904297 -1.52261719 11.05904297 -2 12 C-2.66 12 -3.32 12 -4 12 C-3.52309796 10.37433394 -3.04340334 8.74948689 -2.5625 7.125 C-2.29566406 6.22007812 -2.02882812 5.31515625 -1.75390625 4.3828125 C-1 2 -1 2 0 0 Z " fill="#702F96" transform="translate(221,374)"/>
<path d="M0 0 C1.32 0.33 2.64 0.66 4 1 C2.71034824 2.37562854 1.37310707 3.70766393 0 5 C-0.66 5 -1.32 5 -2 5 C-2 5.66 -2 6.32 -2 7 C-2.66 7 -3.32 7 -4 7 C-2.79618552 4.50638429 -1.54571278 2.31856917 0 0 Z " fill="#6429B1" transform="translate(196,421)"/>
<path d="M0 0 C0.99 0 1.98 0 3 0 C1.70700306 2.88437779 0.34058637 4.87219421 -2 7 C-2.33 6.01 -2.66 5.02 -3 4 C-2.34 4 -1.68 4 -1 4 C-0.67 2.68 -0.34 1.36 0 0 Z " fill="#A74B63" transform="translate(422,440)"/>
<path d="M0 0 C2 1.375 2 1.375 4 3 C4 3.66 4 4.32 4 5 C1.03 4.01 -1.94 3.02 -5 2 C-3.68 1.67 -2.36 1.34 -1 1 C-0.67 0.67 -0.34 0.34 0 0 Z " fill="#B2B2BA" transform="translate(830,416)"/>
</svg>
